<svg xmlns="http://www.w3.org/2000/svg" width="1000" height="650" viewBox="0 0 1000 650">
<rect width="100%" height="100%" fill="white"/>
<style>
text { font-family: Arial, Helvetica, sans-serif; fill:#111; }
.title { font-size:28px; font-weight:700; }
.subtitle { font-size:17px; }
.label { font-size:16px; }
.small { font-size:14px; }
.axis { stroke:#222; stroke-width:1.5; }
.grid { stroke:#d0d0d0; stroke-width:1; }
.bar1 { fill:#444; }
.bar2 { fill:#aaa; }
</style>
<text x="500.0" y="45" text-anchor="middle" class="title">Diagnóstico leave-one-buyer-out</text><line x1="120" y1="540.0" x2="930" y2="540.0" class="grid"/><text x="102" y="545.0" text-anchor="end" class="small">0.0</text><line x1="120" y1="452.0" x2="930" y2="452.0" class="grid"/><text x="102" y="457.0" text-anchor="end" class="small">0.2</text><line x1="120" y1="364.0" x2="930" y2="364.0" class="grid"/><text x="102" y="369.0" text-anchor="end" class="small">0.4</text><line x1="120" y1="276.0" x2="930" y2="276.0" class="grid"/><text x="102" y="281.0" text-anchor="end" class="small">0.6</text><line x1="120" y1="188.0" x2="930" y2="188.0" class="grid"/><text x="102" y="193.0" text-anchor="end" class="small">0.8</text><line x1="120" y1="100.0" x2="930" y2="100.0" class="grid"/><text x="102" y="105.0" text-anchor="end" class="small">1.0</text><line x1="120" y1="100" x2="120" y2="540" class="axis"/><line x1="120" y1="540" x2="930" y2="540" class="axis"/><rect x="235" y="423.5" width="85" height="116.5" class="bar1"/><text x="277.5" y="413.5" text-anchor="middle" class="small">0.265</text><rect x="345" y="369.0" width="85" height="171.0" class="bar2"/><text x="387.5" y="359.0" text-anchor="middle" class="small">0.389</text><text x="330" y="576" text-anchor="middle" class="label">Strength</text><rect x="595" y="107.9" width="85" height="432.1" class="bar1"/><text x="637.5" y="97.9" text-anchor="middle" class="small">0.982</text><rect x="705" y="145.7" width="85" height="394.3" class="bar2"/><text x="747.5" y="135.7" text-anchor="middle" class="small">0.896</text><text x="690" y="576" text-anchor="middle" class="label">Degree</text><rect x="300" y="590" width="22" height="16" class="bar1"/><text x="332" y="604" class="small">Correlação exposição bruta vs. LOO</text><rect x="610" y="590" width="22" height="16" class="bar2"/><text x="642" y="604" class="small">Retenção do quartil superior</text></svg>